<?xml version="1.0" encoding="utf-8"?>
<!-- Generator: Adobe Illustrator 19.0.1, SVG Export Plug-In . SVG Version: 6.00 Build 0)  -->
<svg version="1.1" id="Layer_1" xmlns="http://www.w3.org/2000/svg" xmlns:xlink="http://www.w3.org/1999/xlink" x="0px" y="0px"
	 viewBox="0 0 50 50" style="enable-background:new 0 0 50 50;" xml:space="preserve">
<g>
	<polygon points="31,33.8 25.4,50 19,33.8 25,38.3 	"/>
	<g>
		<g>
			<path d="M24.3,0.6c0-0.4,0.3-0.6,0.6-0.6c0.4,0,0.6,0.3,0.6,0.6l0,2.6l0,0c0,0.4-0.3,0.6-0.6,0.6c-0.4,0-0.6-0.3-0.6-0.6
				L24.3,0.6L24.3,0.6z M24.3,5.8c0-0.4,0.3-0.6,0.6-0.6c0.4,0,0.6,0.3,0.6,0.6l0,2.6c0,0,0,0,0,0C25.6,8.7,25.3,9,25,9
				c-0.4,0-0.6-0.3-0.6-0.6L24.3,5.8C24.3,5.8,24.3,5.8,24.3,5.8z M24.3,10.9c0-0.4,0.3-0.6,0.6-0.6c0.4,0,0.6,0.3,0.6,0.6l0,2.6
				c0,0,0,0,0,0c0,0.4-0.3,0.6-0.6,0.6c-0.4,0-0.6-0.3-0.6-0.6L24.3,10.9C24.3,10.9,24.3,10.9,24.3,10.9z M24.3,16
				c0-0.4,0.3-0.6,0.6-0.6c0.4,0,0.6,0.3,0.6,0.6l0,2.6l0,0c0,0.4-0.3,0.6-0.6,0.6c-0.4,0-0.6-0.3-0.6-0.6L24.3,16L24.3,16z
				 M24.3,21.2c0-0.4,0.3-0.6,0.6-0.6c0.3,0,0.6,0.3,0.6,0.6l0,2.6c0,0,0,0,0,0c0,0.4-0.3,0.6-0.6,0.6s-0.6-0.3-0.6-0.6L24.3,21.2
				C24.3,21.2,24.3,21.2,24.3,21.2z M24.3,26.3c0-0.4,0.3-0.6,0.6-0.6s0.6,0.3,0.6,0.6l0,2.6c0,0,0,0,0,0c0,0.4-0.3,0.6-0.6,0.6
				c-0.4,0-0.6-0.3-0.6-0.6L24.3,26.3C24.3,26.3,24.3,26.3,24.3,26.3z M24.4,31.4c0-0.4,0.3-0.6,0.6-0.6s0.6,0.3,0.6,0.6l0,2.6l0,0
				c0,0.4-0.3,0.6-0.6,0.6c-0.4,0-0.6-0.3-0.6-0.6L24.4,31.4L24.4,31.4z"/>
		</g>
	</g>
</g>
</svg>
