<svg xmlns="http://www.w3.org/2000/svg" version="1.1" x="0" y="0" viewBox="0 0 50 50" xml:space="preserve"><style type="text/css">
	.st0{fill:#3FAE2A;}
</style><path class="st0" d="M50 17.5c-0.5 0.7-1 1.5-1.6 2.2 -1.5 1.9-3 3.8-4.5 5.7 -1.7 2.1-3.4 4.2-5.1 6.3 -1.7 2.1-3.4 4.2-5.1 6.3 -1.8 2.3-3.7 4.5-5.5 6.8 -0.7 0.8-1.3 1.6-1.9 2.4 -0.8 1-1.7 1-2.5 0 -1.6-2-3.2-4-4.8-6 -1.8-2.3-3.6-4.5-5.5-6.8 -2.3-2.8-4.6-5.7-6.9-8.5 -2-2.4-3.9-4.9-5.9-7.3 -0.3-0.3-0.5-0.7-0.7-1.1 0-0.2 0-0.4 0-0.6 0.5-0.8 1-1.7 1.4-2.5 1.4-2.3 2.8-4.6 4.2-6.9C6.6 6 7.5 4.5 8.4 3c0.3-0.6 0.8-0.8 1.5-0.8 10.1 0 20.1 0 30.2 0 0.7 0 1.1 0.2 1.5 0.8 0.6 1 1.2 2 1.8 3 1.1 1.9 2.2 3.7 3.4 5.6 1.1 1.8 2.2 3.6 3.3 5.4C50 17.1 50 17.3 50 17.5zM17.5 18.6c2.5 7.8 5 15.5 7.4 23.2 0 0 0.1 0 0.1 0 2.5-7.7 4.9-15.4 7.4-23.2C27.5 18.6 22.5 18.6 17.5 18.6zM32.3 15.8c-0.1-0.2-0.1-0.3-0.1-0.4 -0.3-0.8-0.7-1.6-1-2.4 -1-2.6-2.1-5.3-3.2-7.9 0-0.1-0.2-0.2-0.3-0.2 -1.8 0-3.6 0-5.4 0C22.2 4.9 22 5 22 5.2c-0.2 0.5-0.4 1.1-0.6 1.6 -0.9 2.3-1.8 4.5-2.7 6.8 -0.3 0.7-0.6 1.5-0.9 2.3C22.6 15.8 27.4 15.8 32.3 15.8zM21.3 39.7C21.3 39.7 21.3 39.7 21.3 39.7c0.1-0.1 0.1-0.2 0-0.2 -0.9-2.9-1.9-5.9-2.8-8.8 -1.2-3.9-2.5-7.8-3.7-11.7 -0.1-0.3-0.2-0.4-0.5-0.4 -3.2 0-6.3 0-9.5 0 -0.1 0-0.3 0-0.5 0C10 25.7 15.6 32.7 21.3 39.7zM45.7 18.6c-0.2 0-0.3 0-0.3 0 -3.2 0-6.5 0-9.7 0 -0.3 0-0.4 0.1-0.5 0.4 -1 3.1-2 6.2-3 9.3 -1 3.2-2.1 6.5-3.1 9.7 -0.2 0.5-0.3 1.1-0.5 1.6 0 0 0.1 0 0.1 0C34.4 32.7 40 25.7 45.7 18.6zM3.9 15.8c0.1 0 0.1 0.1 0.1 0.1 3.5 0 7 0 10.5 0 0.1 0 0.3-0.1 0.4-0.3 0.2-0.5 0.4-1 0.6-1.6 1.1-2.8 2.2-5.6 3.4-8.4 0.1-0.2 0.2-0.5 0.3-0.7 -0.1 0-0.2 0-0.2 0 -2.7 0-5.4 0-8.1 0 -0.1 0-0.3 0.1-0.4 0.2 -0.5 0.8-1 1.7-1.5 2.5 -1.2 2-2.5 4.1-3.7 6.1C4.7 14.4 4.3 15.1 3.9 15.8zM31 4.9C31 5 31 5.1 31 5.2c0.4 0.9 0.7 1.9 1.1 2.8 1 2.5 2 4.9 3 7.4 0.1 0.3 0.3 0.4 0.6 0.4 3.3 0 6.6 0 9.9 0 0.1 0 0.3 0 0.5 0 -0.1-0.2-0.2-0.4-0.3-0.5 -0.7-1.1-1.3-2.2-2-3.3 -1.4-2.3-2.8-4.6-4.2-6.9 -0.1-0.2-0.3-0.3-0.5-0.3 -2.6 0-5.2 0-7.8 0C31.3 4.9 31.1 4.9 31 4.9z"/></svg>